<svg width="14" height="11" viewBox="0 0 14 11" fill="none" xmlns="http://www.w3.org/2000/svg">
<path d="M2.14578 4.8469H2.14596C2.2397 4.84701 2.33219 4.86836 2.41649 4.90934L2.35092 5.04425L2.41649 4.90934C2.50075 4.95029 2.57465 5.00979 2.63263 5.08338L2.14578 4.8469ZM2.14578 4.8469H1.11788C0.894239 4.8469 0.769482 5.10449 0.907446 5.27947L0.907497 5.27954L4.93528 10.3823L4.93532 10.3823C5.18384 10.6969 5.66052 10.6961 5.91004 10.3828L5.91045 10.3823L13.0917 1.28221C13.0918 1.28203 13.092 1.28184 13.0921 1.28166C13.2326 1.106 13.1031 0.85 12.8821 0.85H11.8542C11.6646 0.85 11.4841 0.936906 11.3671 1.08679C11.367 1.08693 11.3669 1.08707 11.3668 1.08721L5.42213 8.61788M2.14578 4.8469L5.42213 8.61788M5.42213 8.61788L2.63272 5.08349L5.42213 8.61788Z" fill="white" stroke="white" stroke-width="0.3"/>
</svg>
