<svg width="22" height="22" viewBox="0 0 22 22" fill="none" xmlns="http://www.w3.org/2000/svg">
<path d="M6.92815 2.21184H6.71387C6.83173 2.21184 6.92815 2.11541 6.92815 1.99755V2.21184H15.071V1.99755C15.071 2.11541 15.1674 2.21184 15.2853 2.21184H15.071V4.14041H16.9996V1.99755C16.9996 1.05201 16.2308 0.283264 15.2853 0.283264H6.71387C5.76833 0.283264 4.99958 1.05201 4.99958 1.99755V4.14041H6.92815V2.21184ZM20.4282 4.14041H1.57101C1.0969 4.14041 0.713867 4.52344 0.713867 4.99755V5.85469C0.713867 5.97255 0.810296 6.06898 0.928153 6.06898H2.54601L3.20762 20.0779C3.25047 20.9913 4.00583 21.7118 4.91922 21.7118H17.0799C17.996 21.7118 18.7487 20.994 18.7915 20.0779L19.4532 6.06898H21.071C21.1889 6.06898 21.2853 5.97255 21.2853 5.85469V4.99755C21.2853 4.52344 20.9023 4.14041 20.4282 4.14041ZM16.8737 19.7833H5.12548L4.47726 6.06898H17.5219L16.8737 19.7833Z" fill="#686974"/>
</svg>
