<svg width="22" height="22" viewBox="0 0 22 22" fill="none" xmlns="http://www.w3.org/2000/svg">
<path d="M4.21859 17.4C4.27192 17.4 4.32525 17.3947 4.37859 17.3867L8.86392 16.6C8.91725 16.5893 8.96792 16.5653 9.00525 16.5253L20.3093 5.22133C20.334 5.19666 20.3536 5.16735 20.367 5.13509C20.3803 5.10284 20.3872 5.06825 20.3872 5.03333C20.3872 4.9984 20.3803 4.96382 20.367 4.93156C20.3536 4.8993 20.334 4.87 20.3093 4.84533L15.8773 0.410662C15.8266 0.359995 15.7599 0.333328 15.6879 0.333328C15.6159 0.333328 15.5493 0.359995 15.4986 0.410662L4.19458 11.7147C4.15458 11.7547 4.13059 11.8027 4.11992 11.856L3.33325 16.3413C3.30731 16.4842 3.31658 16.6312 3.36026 16.7697C3.40393 16.9081 3.4807 17.0339 3.58392 17.136C3.75992 17.3067 3.98125 17.4 4.21859 17.4V17.4ZM6.01592 12.7493L15.6879 3.07999L17.6426 5.03466L7.97058 14.704L5.59992 15.1227L6.01592 12.7493V12.7493ZM20.8133 19.64H1.18659C0.714585 19.64 0.333252 20.0213 0.333252 20.4933V21.4533C0.333252 21.5707 0.429252 21.6667 0.546585 21.6667H21.4533C21.5706 21.6667 21.6666 21.5707 21.6666 21.4533V20.4933C21.6666 20.0213 21.2853 19.64 20.8133 19.64Z" fill="#686974"/>
</svg>
